<svg width="52" height="52" viewBox="0 0 52 52" fill="none" xmlns="http://www.w3.org/2000/svg">
<rect width="52" height="52" rx="10" fill="#F9FAFB"/>
<path d="M42.2838 17.5266C42.1876 17.3474 42.0247 17.2134 41.8303 17.1535C41.636 17.0937 41.4259 17.1127 41.2455 17.2066C41.0651 17.3005 40.929 17.4616 40.8666 17.6552C40.8041 17.8487 40.8204 18.059 40.912 18.2406C42.5717 21.4087 43.1731 25.0251 42.6281 28.5599C42.083 32.0946 40.4201 35.3619 37.8831 37.8828C31.3319 44.4334 20.671 44.4355 14.117 37.8822C14.0088 37.774 13.871 37.7004 13.721 37.6706C13.571 37.6408 13.4155 37.6562 13.2742 37.7148C13.1329 37.7733 13.0122 37.8725 12.9273 37.9997C12.8423 38.127 12.7971 38.2765 12.7972 38.4295V42.8748C12.7972 43.0798 12.8786 43.2765 13.0236 43.4215C13.1686 43.5665 13.3653 43.6479 13.5704 43.6479C13.7754 43.6479 13.9721 43.5665 14.1171 43.4215C14.2621 43.2765 14.3435 43.0798 14.3435 42.8748V40.1755C17.6113 42.8615 21.7065 44.3363 25.9364 44.3507C30.1664 44.3651 34.2715 42.9181 37.5575 40.2544C40.8434 37.5907 43.1086 33.8739 43.9698 29.7325C44.831 25.5911 44.2354 21.2794 42.2838 17.5266ZM14.117 14.1173C20.6702 7.56469 31.3311 7.56539 37.8831 14.1166C37.9912 14.2249 38.1289 14.2987 38.2789 14.3287C38.429 14.3586 38.5845 14.3434 38.7258 14.2848C38.8671 14.2263 38.9879 14.1271 39.0728 13.9999C39.1578 13.8726 39.203 13.7231 39.2028 13.5701V9.12476C39.2028 8.91971 39.1214 8.72305 38.9764 8.57806C38.8314 8.43306 38.6347 8.3516 38.4297 8.3516C38.2246 8.3516 38.0279 8.43306 37.8829 8.57806C37.7379 8.72305 37.6565 8.91971 37.6565 9.12476V11.824C30.4549 5.89406 19.7543 6.29305 13.0238 13.0235C10.2531 15.7763 8.43703 19.3441 7.8418 23.2042C7.24657 27.0642 7.90345 31.0134 9.71617 34.473C9.81242 34.6521 9.97535 34.7861 10.1697 34.846C10.364 34.9059 10.5741 34.8868 10.7545 34.7929C10.9349 34.699 11.071 34.5379 11.1334 34.3444C11.1959 34.1508 11.1796 33.9405 11.088 33.7589C9.42828 30.5909 8.82686 26.9746 9.37194 23.4399C9.91701 19.9053 11.5799 16.6381 14.117 14.1173Z" fill="#ED5252"/>
<path d="M15.875 25.8871V34.4371C15.8766 34.996 16.0994 35.5316 16.4946 35.9268C16.8899 36.3221 17.4254 36.5448 17.9844 36.5465H34.0156C34.5746 36.5449 35.1102 36.3221 35.5054 35.9269C35.9007 35.5317 36.1234 34.9961 36.125 34.4371V25.8871C36.1234 25.3282 35.9006 24.7926 35.5054 24.3973C35.1102 24.0021 34.5746 23.7793 34.0156 23.7777H17.9844C17.4254 23.7794 16.8899 24.0021 16.4946 24.3974C16.0994 24.7926 15.8766 25.3282 15.875 25.8871ZM31.625 28.5102C31.9517 28.5102 32.2711 28.607 32.5428 28.7886C32.8145 28.9701 33.0262 29.2281 33.1513 29.53C33.2763 29.8319 33.309 30.164 33.2453 30.4845C33.1815 30.8049 33.0242 31.0993 32.7932 31.3303C32.5621 31.5614 32.2678 31.7187 31.9473 31.7825C31.6268 31.8462 31.2947 31.8135 30.9928 31.6885C30.6909 31.5634 30.4329 31.3517 30.2514 31.08C30.0699 30.8083 29.973 30.4889 29.973 30.1622C29.9734 29.7242 30.1476 29.3042 30.4573 28.9945C30.767 28.6848 31.187 28.5106 31.625 28.5102ZM26 28.5102C26.3267 28.5102 26.6461 28.607 26.9178 28.7886C27.1895 28.9701 27.4012 29.2281 27.5263 29.53C27.6513 29.8319 27.684 30.164 27.6203 30.4845C27.5565 30.8049 27.3992 31.0993 27.1682 31.3303C26.9371 31.5614 26.6428 31.7187 26.3223 31.7825C26.0018 31.8462 25.6697 31.8135 25.3678 31.6885C25.0659 31.5634 24.8079 31.3517 24.6264 31.08C24.4449 30.8083 24.348 30.4889 24.348 30.1622C24.3484 29.7242 24.5226 29.3042 24.8323 28.9945C25.142 28.6848 25.562 28.5106 26 28.5102ZM20.375 28.5102C20.7017 28.5102 21.0211 28.607 21.2928 28.7886C21.5645 28.9701 21.7762 29.2281 21.9013 29.53C22.0263 29.8319 22.059 30.164 21.9953 30.4845C21.9315 30.8049 21.7742 31.0993 21.5432 31.3303C21.3121 31.5614 21.0178 31.7187 20.6973 31.7825C20.3768 31.8462 20.0447 31.8135 19.7428 31.6885C19.4409 31.5634 19.1829 31.3517 19.0014 31.08C18.8199 30.8083 18.723 30.4889 18.723 30.1622C18.7234 29.7242 18.8976 29.3042 19.2073 28.9945C19.517 28.6848 19.937 28.5106 20.375 28.5102ZM32.8479 22.2309V19.4183C32.8479 17.6021 32.1264 15.8603 30.8422 14.5761C29.558 13.2919 27.8162 12.5704 26 12.5704C24.1838 12.5704 22.442 13.2919 21.1578 14.5761C19.8736 15.8603 19.1521 17.6021 19.1521 19.4183V22.2309H20.6984V19.4183C20.6984 18.0122 21.257 16.6637 22.2512 15.6695C23.2455 14.6753 24.5939 14.1167 26 14.1167C27.4061 14.1167 28.7545 14.6753 29.7488 15.6695C30.743 16.6637 31.3016 18.0122 31.3016 19.4183V22.2309H32.8479Z" fill="#ED5252"/>
</svg>
