<svg width="52" height="52" viewBox="0 0 52 52" fill="none" xmlns="http://www.w3.org/2000/svg">
<rect width="52" height="52" rx="10" fill="#F9FAFB"/>
<g clip-path="url(#clip0_16_47)">
<path d="M14 6C9.568 6 6 9.568 6 14V38C6 42.432 9.568 46 14 46H38C42.432 46 46 42.432 46 38V14C46 9.568 42.432 6 38 6H14ZM22.9804 11.454C24.691 11.454 26.3316 12.1336 27.5412 13.3432C28.7508 14.5528 29.4304 16.1934 29.4304 17.904C29.4304 19.6146 28.7508 21.2552 27.5412 22.4648C26.3316 23.6744 24.691 24.354 22.9804 24.354C21.2698 24.354 19.6292 23.6744 18.4196 22.4648C17.21 21.2552 16.5304 19.6146 16.5304 17.904C16.5304 16.1934 17.21 14.5528 18.4196 13.3432C19.6292 12.1336 21.2698 11.454 22.9804 11.454ZM40.9492 16.5288C40.982 16.5279 41.0148 16.5282 41.0476 16.5296C41.2938 16.5401 41.5328 16.6153 41.7406 16.7478C41.9484 16.8802 42.1175 17.0651 42.2309 17.2839C42.3443 17.5026 42.398 17.7474 42.3866 17.9935C42.3751 18.2396 42.2989 18.4784 42.1656 18.6856L36.8656 27.1856C36.7477 27.3747 36.5864 27.533 36.3951 27.6472C36.2037 27.7614 35.9879 27.8283 35.7654 27.8423C35.543 27.8563 35.3205 27.8171 35.1163 27.7277C34.9122 27.6384 34.7323 27.5016 34.5916 27.3288L30.8812 22.772C30.6467 22.484 30.5363 22.1146 30.5742 21.7452C30.6121 21.3757 30.7952 21.0365 31.0832 20.802C31.3712 20.5675 31.7406 20.4571 32.11 20.495C32.4795 20.5329 32.8188 20.716 33.0532 21.004L35.5256 24.0416L39.7892 17.2048C39.9104 17.004 40.0802 16.8368 40.2829 16.7187C40.4856 16.6006 40.7147 16.5353 40.9492 16.5288ZM27.6876 24.8264C31.3056 27.7144 34.1484 29.4956 34.1484 40.5464H11.812C11.812 29.6992 14.6532 27.7168 18.27 24.8272C19.7632 25.4472 21.3639 25.7672 22.9808 25.7688C24.5965 25.7665 26.1955 25.4463 27.6876 24.8264Z" fill="#64C68D"/>
</g>
<defs>
<clipPath id="clip0_16_47">
<rect width="40" height="40" fill="white" transform="translate(6 6)"/>
</clipPath>
</defs>
</svg>
