<svg width="134" height="36" viewBox="0 0 134 36" fill="none" xmlns="http://www.w3.org/2000/svg">
<path d="M2.22656 8.58594H16.5117V11.2695H9.01172L9 16.3203H14.5078V19.0039H9V26H2.22656V8.58594ZM21.9961 12.4531C21.418 12.4531 20.918 12.3906 20.4961 12.2656C20.082 12.1406 19.7422 11.9688 19.4766 11.75C19.2109 11.5234 19.0156 11.2656 18.8906 10.9766C18.7656 10.6797 18.7031 10.3594 18.7031 10.0156C18.7031 9.67969 18.7656 9.36328 18.8906 9.06641C19.0156 8.76953 19.2109 8.51172 19.4766 8.29297C19.7422 8.06641 20.082 7.89063 20.4961 7.76562C20.918 7.64062 21.418 7.57812 21.9961 7.57812C22.582 7.57812 23.082 7.64062 23.4961 7.76562C23.9102 7.89063 24.25 8.06641 24.5156 8.29297C24.7891 8.51172 24.9883 8.76953 25.1133 9.06641C25.2383 9.36328 25.3008 9.67969 25.3008 10.0156C25.3008 10.3594 25.2383 10.6797 25.1133 10.9766C24.9883 11.2656 24.7891 11.5234 24.5156 11.75C24.25 11.9688 23.9102 12.1406 23.4961 12.2656C23.082 12.3906 22.582 12.4531 21.9961 12.4531ZM18.8203 14.3867H25.1836V26H18.8203V14.3867ZM28.4766 14.3867H34.0898L34.6523 16.0742C35.4805 15.4414 36.3203 14.9648 37.1719 14.6445C38.0312 14.3242 38.9336 14.1641 39.8789 14.1641C40.418 14.1641 40.918 14.2539 41.3789 14.4336C41.8477 14.6133 42.2539 14.8906 42.5977 15.2656C42.9414 15.6406 43.2109 16.125 43.4062 16.7188C43.6016 17.3047 43.6992 18.0078 43.6992 18.8281V26H37.3359V18.4297C37.3359 18.0234 37.2461 17.7266 37.0664 17.5391C36.8867 17.3516 36.625 17.2578 36.2812 17.2578C36.0547 17.2578 35.8047 17.3047 35.5312 17.3984C35.2578 17.4922 35.0273 17.6406 34.8398 17.8438V26H28.4766V14.3867ZM50.5195 11.2578H45.5508V8.57422H62.2617V11.2578H57.293V26H50.5195V11.2578ZM64.2188 14.3867H69.832L70.3945 16.0742C70.8398 15.7461 71.2578 15.4648 71.6484 15.2305C72.0469 14.9883 72.4297 14.7891 72.7969 14.6328C73.1719 14.4688 73.5312 14.3516 73.875 14.2812C74.2266 14.2031 74.5742 14.1641 74.918 14.1641C75.418 14.1641 75.8672 14.2344 76.2656 14.375C76.6719 14.5156 77.0156 14.7148 77.2969 14.9727C77.5859 15.2305 77.8047 15.5391 77.9531 15.8984C78.1094 16.25 78.1875 16.6406 78.1875 17.0703C78.1875 17.5 78.0938 17.8945 77.9062 18.2539C77.7266 18.6133 77.4609 18.9258 77.1094 19.1914C76.7578 19.4492 76.3242 19.6523 75.8086 19.8008C75.3008 19.9414 74.7188 20.0117 74.0625 20.0117L72 17.2578C71.7734 17.2578 71.5273 17.3047 71.2617 17.3984C70.9961 17.4922 70.7695 17.6406 70.582 17.8438V26H64.2188V14.3867ZM79.2539 22.3438C79.2539 21.7812 79.3789 21.2578 79.6289 20.7734C79.8789 20.2891 80.2383 19.8672 80.707 19.5078C81.1758 19.1484 81.7422 18.8672 82.4062 18.6641C83.0703 18.4531 83.8125 18.3477 84.6328 18.3477C85.4531 18.3477 86.2188 18.4453 86.9297 18.6406C87.6484 18.8281 88.25 19.0703 88.7344 19.3672V19.2734C88.7344 18.7266 88.6719 18.2617 88.5469 17.8789C88.4297 17.4961 88.2461 17.1836 87.9961 16.9414C87.7461 16.6992 87.4258 16.5234 87.0352 16.4141C86.6523 16.3047 86.1992 16.25 85.6758 16.25C85.1992 16.25 84.707 16.293 84.1992 16.3789C83.6914 16.457 83.2227 16.5742 82.793 16.7305L81.9375 15.1484C82.7891 14.7969 83.668 14.5469 84.5742 14.3984C85.4883 14.2422 86.4297 14.1641 87.3984 14.1641C88.6406 14.1641 89.7383 14.2852 90.6914 14.5273C91.6523 14.7617 92.457 15.1172 93.1055 15.5938C93.7617 16.0625 94.2578 16.6562 94.5938 17.375C94.9297 18.0859 95.0977 18.9219 95.0977 19.8828V26H89.1562L88.7578 24.875C88.5234 25.0547 88.2461 25.2266 87.9258 25.3906C87.6055 25.5547 87.2539 25.6992 86.8711 25.8242C86.4883 25.9492 86.082 26.0469 85.6523 26.1172C85.2227 26.1875 84.7734 26.2227 84.3047 26.2227C83.5391 26.2227 82.8438 26.125 82.2188 25.9297C81.6016 25.7266 81.0742 25.4531 80.6367 25.1094C80.1992 24.7656 79.8594 24.3594 79.6172 23.8906C79.375 23.4141 79.2539 22.8984 79.2539 22.3438ZM85.8164 22.0977C85.8164 22.5195 85.9531 22.8633 86.2266 23.1289C86.5 23.3867 86.8672 23.5156 87.3281 23.5156C87.5781 23.5156 87.8242 23.4766 88.0664 23.3984C88.3086 23.3125 88.5312 23.1875 88.7344 23.0234V21.043C88.3438 20.8086 87.9141 20.6914 87.4453 20.6914C86.9141 20.6914 86.5078 20.8242 86.2266 21.0898C85.9531 21.3477 85.8164 21.6836 85.8164 22.0977ZM97.5 20.1875C97.5 19.3984 97.6641 18.6406 97.9922 17.9141C98.3281 17.1875 98.832 16.5469 99.5039 15.9922C100.176 15.4375 101.023 14.9961 102.047 14.668C103.078 14.332 104.289 14.1641 105.68 14.1641C106.68 14.1641 107.535 14.2617 108.246 14.457C108.957 14.6445 109.539 14.8945 109.992 15.207C110.445 15.5195 110.777 15.875 110.988 16.2734C111.199 16.6719 111.305 17.0781 111.305 17.4922C111.305 17.8125 111.23 18.1172 111.082 18.4062C110.934 18.6953 110.734 18.9531 110.484 19.1797C110.234 19.3984 109.941 19.5742 109.605 19.707C109.27 19.8398 108.914 19.9062 108.539 19.9062L105.562 15.8398C105.344 16.0352 105.141 16.2656 104.953 16.5312C104.773 16.7969 104.613 17.1016 104.473 17.4453C104.34 17.7812 104.234 18.1602 104.156 18.582C104.086 18.9961 104.051 19.4531 104.051 19.9531C104.051 20.6484 104.137 21.2578 104.309 21.7812C104.48 22.3047 104.715 22.7422 105.012 23.0938C105.309 23.4375 105.66 23.6992 106.066 23.8789C106.48 24.0508 106.93 24.1367 107.414 24.1367C107.648 24.1367 107.883 24.1211 108.117 24.0898C108.359 24.0508 108.586 24.0039 108.797 23.9492C109.016 23.8867 109.215 23.8164 109.395 23.7383C109.574 23.6602 109.727 23.5781 109.852 23.4922L110.789 25.1328C110.5 25.2812 110.184 25.4219 109.84 25.5547C109.504 25.6875 109.129 25.8047 108.715 25.9062C108.309 26 107.859 26.0742 107.367 26.1289C106.875 26.1914 106.336 26.2227 105.75 26.2227C104.344 26.2227 103.121 26.0586 102.082 25.7305C101.051 25.3945 100.195 24.9492 99.5156 24.3945C98.8359 23.8398 98.3281 23.1992 97.9922 22.4727C97.6641 21.7461 97.5 20.9844 97.5 20.1875ZM113.531 6.65234H119.895V19.2734L124.617 14.3867H128.133L124.406 18.1719L130.16 26L123.035 25.9883L119.895 21.4883V26H113.531V6.65234Z" fill="#0D99FF"/>
</svg>
